<mxfile host="app.diagrams.net" modified="2021-02-11T12:37:42.574Z" agent="5.0 (Windows NT 10.0; Win64; x64) AppleWebKit/537.36 (KHTML, like Gecko) Chrome/88.0.4324.150 Safari/537.36 Edg/88.0.705.63" etag="F3E3nsFKNeroQsfEBWgP" version="14.3.0" type="github">
  <diagram id="_Do_UXyJbupYQ12IYGH0" name="Page-1">
    <mxGraphModel dx="1698" dy="942" grid="1" gridSize="10" guides="1" tooltips="1" connect="1" arrows="1" fold="1" page="1" pageScale="1" pageWidth="1169" pageHeight="827" math="0" shadow="0">
      <root>
        <mxCell id="0" />
        <mxCell id="1" parent="0" />
        <mxCell id="6UAyy9SeAwGmSTZhob72-1" value="Actor" style="rounded=0;whiteSpace=wrap;html=1;" vertex="1" parent="1">
          <mxGeometry x="20" y="30" width="150" height="30" as="geometry" />
        </mxCell>
        <mxCell id="6UAyy9SeAwGmSTZhob72-10" style="edgeStyle=orthogonalEdgeStyle;rounded=0;orthogonalLoop=1;jettySize=auto;html=1;exitX=0;exitY=0.5;exitDx=0;exitDy=0;dashed=1;endArrow=none;endFill=0;" edge="1" parent="1" source="6UAyy9SeAwGmSTZhob72-17">
          <mxGeometry relative="1" as="geometry">
            <mxPoint x="285" y="780" as="targetPoint" />
            <Array as="points" />
          </mxGeometry>
        </mxCell>
        <mxCell id="6UAyy9SeAwGmSTZhob72-3" value="view:&lt;br&gt;MyGroups" style="rounded=0;whiteSpace=wrap;html=1;" vertex="1" parent="1">
          <mxGeometry x="210" y="30" width="150" height="30" as="geometry" />
        </mxCell>
        <mxCell id="6UAyy9SeAwGmSTZhob72-11" style="edgeStyle=orthogonalEdgeStyle;rounded=0;orthogonalLoop=1;jettySize=auto;html=1;exitX=0.5;exitY=1;exitDx=0;exitDy=0;dashed=1;endArrow=none;endFill=0;" edge="1" parent="1" source="6UAyy9SeAwGmSTZhob72-24">
          <mxGeometry relative="1" as="geometry">
            <mxPoint x="475" y="730" as="targetPoint" />
            <Array as="points">
              <mxPoint x="475" y="232" />
            </Array>
          </mxGeometry>
        </mxCell>
        <mxCell id="6UAyy9SeAwGmSTZhob72-4" value="GController:&lt;br&gt;MyGroupsGC" style="rounded=0;whiteSpace=wrap;html=1;" vertex="1" parent="1">
          <mxGeometry x="400" y="30" width="150" height="30" as="geometry" />
        </mxCell>
        <mxCell id="6UAyy9SeAwGmSTZhob72-12" style="edgeStyle=orthogonalEdgeStyle;rounded=0;orthogonalLoop=1;jettySize=auto;html=1;exitX=0.5;exitY=1;exitDx=0;exitDy=0;dashed=1;endArrow=none;endFill=0;" edge="1" parent="1" source="6UAyy9SeAwGmSTZhob72-38">
          <mxGeometry relative="1" as="geometry">
            <mxPoint x="1045" y="640" as="targetPoint" />
            <Array as="points">
              <mxPoint x="1045" y="303" />
            </Array>
          </mxGeometry>
        </mxCell>
        <mxCell id="6UAyy9SeAwGmSTZhob72-5" value="Controller:&lt;br&gt;GroupController" style="rounded=0;whiteSpace=wrap;html=1;" vertex="1" parent="1">
          <mxGeometry x="970" y="30" width="150" height="30" as="geometry" />
        </mxCell>
        <mxCell id="6UAyy9SeAwGmSTZhob72-6" value="DAO:&lt;br&gt;GroupDaoImpl&lt;span style=&quot;color: rgba(0 , 0 , 0 , 0) ; font-family: monospace ; font-size: 0px&quot;&gt;%3CmxGraphModel%3E%3Croot%3E%3CmxCell%20id%3D%220%22%2F%3E%3CmxCell%20id%3D%221%22%20parent%3D%220%22%2F%3E%3CmxCell%20id%3D%222%22%20value%3D%22Controller%3A%26lt%3Bbr%26gt%3BGroupController%22%20style%3D%22rounded%3D0%3BwhiteSpace%3Dwrap%3Bhtml%3D1%3B%22%20vertex%3D%221%22%20parent%3D%221%22%3E%3CmxGeometry%20x%3D%22585%22%20y%3D%2230%22%20width%3D%22150%22%20height%3D%2230%22%20as%3D%22geometry%22%2F%3E%3C%2FmxCell%3E%3C%2Froot%3E%3C%2FmxGraphModel%3E&lt;/span&gt;" style="rounded=0;whiteSpace=wrap;html=1;" vertex="1" parent="1">
          <mxGeometry x="1360" y="30" width="150" height="30" as="geometry" />
        </mxCell>
        <mxCell id="6UAyy9SeAwGmSTZhob72-7" value="DAO: &lt;br&gt;PersonDaoImpl" style="rounded=0;whiteSpace=wrap;html=1;" vertex="1" parent="1">
          <mxGeometry x="1169" y="30" width="150" height="30" as="geometry" />
        </mxCell>
        <mxCell id="6UAyy9SeAwGmSTZhob72-16" style="edgeStyle=orthogonalEdgeStyle;rounded=0;orthogonalLoop=1;jettySize=auto;html=1;exitX=0.5;exitY=1;exitDx=0;exitDy=0;dashed=1;endArrow=none;endFill=0;" edge="1" parent="1" source="6UAyy9SeAwGmSTZhob72-1">
          <mxGeometry relative="1" as="geometry">
            <mxPoint x="95" y="750" as="targetPoint" />
            <mxPoint x="95" y="60" as="sourcePoint" />
          </mxGeometry>
        </mxCell>
        <mxCell id="6UAyy9SeAwGmSTZhob72-19" style="edgeStyle=orthogonalEdgeStyle;rounded=0;orthogonalLoop=1;jettySize=auto;html=1;exitX=1;exitY=0;exitDx=0;exitDy=0;endArrow=none;endFill=0;startArrow=classic;startFill=1;" edge="1" parent="1" source="6UAyy9SeAwGmSTZhob72-17">
          <mxGeometry relative="1" as="geometry">
            <mxPoint x="100" y="120.20689655172413" as="targetPoint" />
            <Array as="points">
              <mxPoint x="200" y="120" />
              <mxPoint x="200" y="120" />
            </Array>
          </mxGeometry>
        </mxCell>
        <mxCell id="6UAyy9SeAwGmSTZhob72-21" style="edgeStyle=orthogonalEdgeStyle;rounded=0;orthogonalLoop=1;jettySize=auto;html=1;exitX=0.75;exitY=1;exitDx=0;exitDy=0;startArrow=none;startFill=0;endArrow=classic;endFill=1;entryX=1;entryY=0;entryDx=0;entryDy=0;" edge="1" parent="1" source="6UAyy9SeAwGmSTZhob72-17" target="6UAyy9SeAwGmSTZhob72-24">
          <mxGeometry relative="1" as="geometry">
            <mxPoint x="460" y="140" as="targetPoint" />
            <Array as="points">
              <mxPoint x="295" y="140" />
            </Array>
          </mxGeometry>
        </mxCell>
        <mxCell id="6UAyy9SeAwGmSTZhob72-17" value="" style="rounded=0;whiteSpace=wrap;html=1;rotation=-90;" vertex="1" parent="1">
          <mxGeometry x="61.25" y="333.75" width="447.5" height="20" as="geometry" />
        </mxCell>
        <mxCell id="6UAyy9SeAwGmSTZhob72-18" style="edgeStyle=orthogonalEdgeStyle;rounded=0;orthogonalLoop=1;jettySize=auto;html=1;exitX=0.5;exitY=1;exitDx=0;exitDy=0;dashed=1;endArrow=none;endFill=0;" edge="1" parent="1" source="6UAyy9SeAwGmSTZhob72-3" target="6UAyy9SeAwGmSTZhob72-17">
          <mxGeometry relative="1" as="geometry">
            <mxPoint x="285" y="1070" as="targetPoint" />
            <mxPoint x="285" y="59.99999999999994" as="sourcePoint" />
          </mxGeometry>
        </mxCell>
        <mxCell id="6UAyy9SeAwGmSTZhob72-20" value="1. &lt;br&gt;NavbarGC.swtichTo(MyGroups)" style="text;html=1;align=center;verticalAlign=middle;resizable=0;points=[];autosize=1;" vertex="1" parent="1">
          <mxGeometry x="90" y="90" width="180" height="30" as="geometry" />
        </mxCell>
        <mxCell id="6UAyy9SeAwGmSTZhob72-22" value="2. MyGroups.createBtn()" style="text;html=1;align=center;verticalAlign=middle;resizable=0;points=[];autosize=1;" vertex="1" parent="1">
          <mxGeometry x="305" y="120" width="150" height="20" as="geometry" />
        </mxCell>
        <mxCell id="6UAyy9SeAwGmSTZhob72-65" style="edgeStyle=orthogonalEdgeStyle;rounded=0;orthogonalLoop=1;jettySize=auto;html=1;exitX=0;exitY=0;exitDx=0;exitDy=0;entryX=0.105;entryY=1.041;entryDx=0;entryDy=0;entryPerimeter=0;dashed=1;startArrow=none;startFill=0;endArrow=open;endFill=0;" edge="1" parent="1" source="6UAyy9SeAwGmSTZhob72-24" target="6UAyy9SeAwGmSTZhob72-17">
          <mxGeometry relative="1" as="geometry">
            <Array as="points">
              <mxPoint x="465" y="521" />
              <mxPoint x="380" y="521" />
            </Array>
          </mxGeometry>
        </mxCell>
        <mxCell id="6UAyy9SeAwGmSTZhob72-24" value="" style="rounded=0;whiteSpace=wrap;html=1;rotation=-90;" vertex="1" parent="1">
          <mxGeometry x="281.25" y="323.75" width="387.5" height="20" as="geometry" />
        </mxCell>
        <mxCell id="6UAyy9SeAwGmSTZhob72-25" style="edgeStyle=orthogonalEdgeStyle;rounded=0;orthogonalLoop=1;jettySize=auto;html=1;exitX=0.5;exitY=1;exitDx=0;exitDy=0;dashed=1;endArrow=none;endFill=0;" edge="1" parent="1" source="6UAyy9SeAwGmSTZhob72-4" target="6UAyy9SeAwGmSTZhob72-24">
          <mxGeometry relative="1" as="geometry">
            <mxPoint x="475" y="1070" as="targetPoint" />
            <mxPoint x="475" y="60" as="sourcePoint" />
          </mxGeometry>
        </mxCell>
        <mxCell id="6UAyy9SeAwGmSTZhob72-28" style="edgeStyle=orthogonalEdgeStyle;rounded=0;orthogonalLoop=1;jettySize=auto;html=1;exitX=0.5;exitY=1;exitDx=0;exitDy=0;startArrow=none;startFill=0;endArrow=none;endFill=0;dashed=1;" edge="1" parent="1" source="6UAyy9SeAwGmSTZhob72-30">
          <mxGeometry relative="1" as="geometry">
            <mxPoint x="653" y="680" as="targetPoint" />
            <Array as="points">
              <mxPoint x="653" y="173" />
            </Array>
          </mxGeometry>
        </mxCell>
        <mxCell id="6UAyy9SeAwGmSTZhob72-26" value="view:&lt;br&gt;CreateGroup" style="rounded=0;whiteSpace=wrap;html=1;" vertex="1" parent="1">
          <mxGeometry x="577.5" y="30" width="150" height="30" as="geometry" />
        </mxCell>
        <mxCell id="6UAyy9SeAwGmSTZhob72-29" style="edgeStyle=orthogonalEdgeStyle;rounded=0;orthogonalLoop=1;jettySize=auto;html=1;exitX=0.5;exitY=1;exitDx=0;exitDy=0;dashed=1;startArrow=none;startFill=0;endArrow=none;endFill=0;" edge="1" parent="1" source="6UAyy9SeAwGmSTZhob72-34">
          <mxGeometry relative="1" as="geometry">
            <mxPoint x="855" y="630" as="targetPoint" />
            <Array as="points">
              <mxPoint x="855" y="283" />
            </Array>
          </mxGeometry>
        </mxCell>
        <mxCell id="6UAyy9SeAwGmSTZhob72-27" value="GController:&lt;br&gt;CreateGroupGC" style="rounded=0;whiteSpace=wrap;html=1;" vertex="1" parent="1">
          <mxGeometry x="780" y="30" width="150" height="30" as="geometry" />
        </mxCell>
        <mxCell id="6UAyy9SeAwGmSTZhob72-32" style="edgeStyle=orthogonalEdgeStyle;rounded=0;orthogonalLoop=1;jettySize=auto;html=1;exitX=1;exitY=0;exitDx=0;exitDy=0;entryX=0.944;entryY=0.976;entryDx=0;entryDy=0;entryPerimeter=0;startArrow=classic;startFill=1;endArrow=none;endFill=0;" edge="1" parent="1" source="6UAyy9SeAwGmSTZhob72-30" target="6UAyy9SeAwGmSTZhob72-24">
          <mxGeometry relative="1" as="geometry">
            <Array as="points">
              <mxPoint x="640" y="160" />
              <mxPoint x="640" y="161" />
              <mxPoint x="488" y="161" />
            </Array>
          </mxGeometry>
        </mxCell>
        <mxCell id="6UAyy9SeAwGmSTZhob72-30" value="" style="rounded=0;whiteSpace=wrap;html=1;rotation=-90;" vertex="1" parent="1">
          <mxGeometry x="640" y="162.5" width="25" height="20" as="geometry" />
        </mxCell>
        <mxCell id="6UAyy9SeAwGmSTZhob72-31" style="edgeStyle=orthogonalEdgeStyle;rounded=0;orthogonalLoop=1;jettySize=auto;html=1;exitX=0.5;exitY=1;exitDx=0;exitDy=0;startArrow=none;startFill=0;endArrow=none;endFill=0;dashed=1;" edge="1" parent="1" source="6UAyy9SeAwGmSTZhob72-26" target="6UAyy9SeAwGmSTZhob72-30">
          <mxGeometry relative="1" as="geometry">
            <mxPoint x="652.6666666666667" y="1130" as="targetPoint" />
            <mxPoint x="652.5" y="60" as="sourcePoint" />
          </mxGeometry>
        </mxCell>
        <mxCell id="6UAyy9SeAwGmSTZhob72-33" value="3.GroupsGC.switchTo()" style="text;html=1;align=center;verticalAlign=middle;resizable=0;points=[];autosize=1;" vertex="1" parent="1">
          <mxGeometry x="500" y="140" width="140" height="20" as="geometry" />
        </mxCell>
        <mxCell id="6UAyy9SeAwGmSTZhob72-36" style="edgeStyle=orthogonalEdgeStyle;rounded=0;orthogonalLoop=1;jettySize=auto;html=1;exitX=1;exitY=0;exitDx=0;exitDy=0;startArrow=classic;startFill=1;endArrow=none;endFill=0;entryX=0.902;entryY=1.025;entryDx=0;entryDy=0;entryPerimeter=0;" edge="1" parent="1" source="6UAyy9SeAwGmSTZhob72-34" target="6UAyy9SeAwGmSTZhob72-30">
          <mxGeometry relative="1" as="geometry">
            <mxPoint x="663" y="190" as="targetPoint" />
            <Array as="points">
              <mxPoint x="680" y="180" />
              <mxPoint x="680" y="180" />
            </Array>
          </mxGeometry>
        </mxCell>
        <mxCell id="6UAyy9SeAwGmSTZhob72-63" style="edgeStyle=orthogonalEdgeStyle;rounded=0;orthogonalLoop=1;jettySize=auto;html=1;exitX=0;exitY=0;exitDx=0;exitDy=0;entryX=0.132;entryY=1.082;entryDx=0;entryDy=0;entryPerimeter=0;dashed=1;startArrow=none;startFill=0;endArrow=open;endFill=0;" edge="1" parent="1" source="6UAyy9SeAwGmSTZhob72-34" target="6UAyy9SeAwGmSTZhob72-24">
          <mxGeometry relative="1" as="geometry">
            <Array as="points">
              <mxPoint x="488" y="478" />
              <mxPoint x="488" y="476" />
            </Array>
          </mxGeometry>
        </mxCell>
        <mxCell id="6UAyy9SeAwGmSTZhob72-34" value="" style="rounded=0;whiteSpace=wrap;html=1;rotation=-90;" vertex="1" parent="1">
          <mxGeometry x="706.25" y="318.75" width="297.5" height="20" as="geometry" />
        </mxCell>
        <mxCell id="6UAyy9SeAwGmSTZhob72-35" style="edgeStyle=orthogonalEdgeStyle;rounded=0;orthogonalLoop=1;jettySize=auto;html=1;exitX=0.5;exitY=1;exitDx=0;exitDy=0;dashed=1;startArrow=none;startFill=0;endArrow=none;endFill=0;" edge="1" parent="1" source="6UAyy9SeAwGmSTZhob72-27" target="6UAyy9SeAwGmSTZhob72-34">
          <mxGeometry relative="1" as="geometry">
            <mxPoint x="855.1666666666667" y="1120" as="targetPoint" />
            <mxPoint x="855" y="60" as="sourcePoint" />
          </mxGeometry>
        </mxCell>
        <mxCell id="6UAyy9SeAwGmSTZhob72-37" value="4.createAction" style="text;html=1;align=center;verticalAlign=middle;resizable=0;points=[];autosize=1;" vertex="1" parent="1">
          <mxGeometry x="715" y="160" width="90" height="20" as="geometry" />
        </mxCell>
        <mxCell id="6UAyy9SeAwGmSTZhob72-40" style="edgeStyle=orthogonalEdgeStyle;rounded=0;orthogonalLoop=1;jettySize=auto;html=1;exitX=1;exitY=0;exitDx=0;exitDy=0;entryX=0.901;entryY=0.967;entryDx=0;entryDy=0;entryPerimeter=0;startArrow=classic;startFill=1;endArrow=none;endFill=0;" edge="1" parent="1" source="6UAyy9SeAwGmSTZhob72-38" target="6UAyy9SeAwGmSTZhob72-34">
          <mxGeometry relative="1" as="geometry">
            <Array as="points">
              <mxPoint x="970" y="200" />
              <mxPoint x="970" y="200" />
            </Array>
          </mxGeometry>
        </mxCell>
        <mxCell id="6UAyy9SeAwGmSTZhob72-54" style="edgeStyle=orthogonalEdgeStyle;rounded=0;orthogonalLoop=1;jettySize=auto;html=1;exitX=0.75;exitY=1;exitDx=0;exitDy=0;entryX=0.536;entryY=0.03;entryDx=0;entryDy=0;entryPerimeter=0;startArrow=open;startFill=0;endArrow=none;endFill=0;dashed=1;" edge="1" parent="1" source="6UAyy9SeAwGmSTZhob72-38" target="6UAyy9SeAwGmSTZhob72-47">
          <mxGeometry relative="1" as="geometry" />
        </mxCell>
        <mxCell id="6UAyy9SeAwGmSTZhob72-61" style="edgeStyle=orthogonalEdgeStyle;rounded=0;orthogonalLoop=1;jettySize=auto;html=1;exitX=0;exitY=0;exitDx=0;exitDy=0;entryX=0.25;entryY=1;entryDx=0;entryDy=0;dashed=1;startArrow=none;startFill=0;endArrow=open;endFill=0;" edge="1" parent="1" source="6UAyy9SeAwGmSTZhob72-38" target="6UAyy9SeAwGmSTZhob72-34">
          <mxGeometry relative="1" as="geometry">
            <Array as="points">
              <mxPoint x="1035" y="403" />
            </Array>
          </mxGeometry>
        </mxCell>
        <mxCell id="6UAyy9SeAwGmSTZhob72-38" value="" style="rounded=0;whiteSpace=wrap;html=1;rotation=-90;" vertex="1" parent="1">
          <mxGeometry x="942.5" y="292.5" width="205" height="20" as="geometry" />
        </mxCell>
        <mxCell id="6UAyy9SeAwGmSTZhob72-39" style="edgeStyle=orthogonalEdgeStyle;rounded=0;orthogonalLoop=1;jettySize=auto;html=1;exitX=0.5;exitY=1;exitDx=0;exitDy=0;dashed=1;endArrow=none;endFill=0;" edge="1" parent="1" source="6UAyy9SeAwGmSTZhob72-5" target="6UAyy9SeAwGmSTZhob72-38">
          <mxGeometry relative="1" as="geometry">
            <mxPoint x="1044.9999999999998" y="1120" as="targetPoint" />
            <mxPoint x="1044.9999999999998" y="60" as="sourcePoint" />
          </mxGeometry>
        </mxCell>
        <mxCell id="6UAyy9SeAwGmSTZhob72-41" value="5.createGroup" style="text;html=1;align=center;verticalAlign=middle;resizable=0;points=[];autosize=1;" vertex="1" parent="1">
          <mxGeometry x="910" y="180" width="90" height="20" as="geometry" />
        </mxCell>
        <mxCell id="6UAyy9SeAwGmSTZhob72-57" style="edgeStyle=orthogonalEdgeStyle;rounded=0;orthogonalLoop=1;jettySize=auto;html=1;exitX=1;exitY=0;exitDx=0;exitDy=0;entryX=0.529;entryY=1.097;entryDx=0;entryDy=0;entryPerimeter=0;startArrow=classic;startFill=1;endArrow=none;endFill=0;" edge="1" parent="1" source="6UAyy9SeAwGmSTZhob72-42" target="6UAyy9SeAwGmSTZhob72-38">
          <mxGeometry relative="1" as="geometry">
            <Array as="points">
              <mxPoint x="1425" y="297" />
              <mxPoint x="1240" y="297" />
            </Array>
          </mxGeometry>
        </mxCell>
        <mxCell id="6UAyy9SeAwGmSTZhob72-59" style="edgeStyle=orthogonalEdgeStyle;rounded=0;orthogonalLoop=1;jettySize=auto;html=1;exitX=0;exitY=0;exitDx=0;exitDy=0;entryX=0.204;entryY=1.008;entryDx=0;entryDy=0;entryPerimeter=0;dashed=1;startArrow=none;startFill=0;endArrow=open;endFill=0;" edge="1" parent="1" source="6UAyy9SeAwGmSTZhob72-42" target="6UAyy9SeAwGmSTZhob72-38">
          <mxGeometry relative="1" as="geometry">
            <Array as="points">
              <mxPoint x="1425" y="363" />
            </Array>
          </mxGeometry>
        </mxCell>
        <mxCell id="6UAyy9SeAwGmSTZhob72-42" value="" style="rounded=0;whiteSpace=wrap;html=1;rotation=-90;" vertex="1" parent="1">
          <mxGeometry x="1400.63" y="321.88" width="68.75" height="20" as="geometry" />
        </mxCell>
        <mxCell id="6UAyy9SeAwGmSTZhob72-43" style="edgeStyle=orthogonalEdgeStyle;rounded=0;orthogonalLoop=1;jettySize=auto;html=1;exitX=0.5;exitY=1;exitDx=0;exitDy=0;dashed=1;endArrow=none;endFill=0;" edge="1" parent="1" source="6UAyy9SeAwGmSTZhob72-6" target="6UAyy9SeAwGmSTZhob72-42">
          <mxGeometry relative="1" as="geometry">
            <mxPoint x="1532.5" y="1075" as="targetPoint" />
            <mxPoint x="1532.5" y="85" as="sourcePoint" />
          </mxGeometry>
        </mxCell>
        <mxCell id="6UAyy9SeAwGmSTZhob72-67" style="edgeStyle=orthogonalEdgeStyle;rounded=0;orthogonalLoop=1;jettySize=auto;html=1;exitX=0;exitY=0.5;exitDx=0;exitDy=0;dashed=1;startArrow=none;startFill=0;endArrow=none;endFill=0;" edge="1" parent="1" source="6UAyy9SeAwGmSTZhob72-47">
          <mxGeometry relative="1" as="geometry">
            <mxPoint x="1244" y="600" as="targetPoint" />
          </mxGeometry>
        </mxCell>
        <mxCell id="6UAyy9SeAwGmSTZhob72-47" value="" style="rounded=0;whiteSpace=wrap;html=1;rotation=-90;" vertex="1" parent="1">
          <mxGeometry x="1210.75" y="243.25" width="66.5" height="20" as="geometry" />
        </mxCell>
        <mxCell id="6UAyy9SeAwGmSTZhob72-48" style="edgeStyle=orthogonalEdgeStyle;rounded=0;orthogonalLoop=1;jettySize=auto;html=1;exitX=0.5;exitY=1;exitDx=0;exitDy=0;dashed=1;endArrow=none;endFill=0;" edge="1" parent="1" source="6UAyy9SeAwGmSTZhob72-7" target="6UAyy9SeAwGmSTZhob72-47">
          <mxGeometry relative="1" as="geometry">
            <mxPoint x="1415" y="1000" as="targetPoint" />
            <mxPoint x="1244" y="60" as="sourcePoint" />
            <Array as="points" />
          </mxGeometry>
        </mxCell>
        <mxCell id="6UAyy9SeAwGmSTZhob72-50" value="6.getPersonFromAccount" style="text;html=1;align=center;verticalAlign=middle;resizable=0;points=[];autosize=1;" vertex="1" parent="1">
          <mxGeometry x="1070" y="200" width="150" height="20" as="geometry" />
        </mxCell>
        <mxCell id="6UAyy9SeAwGmSTZhob72-51" style="edgeStyle=orthogonalEdgeStyle;rounded=0;orthogonalLoop=1;jettySize=auto;html=1;exitX=1;exitY=0;exitDx=0;exitDy=0;startArrow=classic;startFill=1;endArrow=none;endFill=0;entryX=0.905;entryY=1.013;entryDx=0;entryDy=0;entryPerimeter=0;" edge="1" parent="1" source="6UAyy9SeAwGmSTZhob72-47" target="6UAyy9SeAwGmSTZhob72-38">
          <mxGeometry relative="1" as="geometry">
            <mxPoint x="1234" y="220" as="sourcePoint" />
            <mxPoint x="1055.26" y="219.47500000000008" as="targetPoint" />
            <Array as="points">
              <mxPoint x="1055" y="219" />
            </Array>
          </mxGeometry>
        </mxCell>
        <mxCell id="6UAyy9SeAwGmSTZhob72-53" value="7. Person Bean" style="text;html=1;align=center;verticalAlign=middle;resizable=0;points=[];autosize=1;" vertex="1" parent="1">
          <mxGeometry x="1110" y="230" width="100" height="20" as="geometry" />
        </mxCell>
        <mxCell id="6UAyy9SeAwGmSTZhob72-58" value="8.groupCreation" style="text;html=1;align=center;verticalAlign=middle;resizable=0;points=[];autosize=1;" vertex="1" parent="1">
          <mxGeometry x="1110" y="272.5" width="100" height="20" as="geometry" />
        </mxCell>
        <mxCell id="6UAyy9SeAwGmSTZhob72-60" value="9. boolean result" style="text;html=1;align=center;verticalAlign=middle;resizable=0;points=[];autosize=1;" vertex="1" parent="1">
          <mxGeometry x="1260" y="340" width="100" height="20" as="geometry" />
        </mxCell>
        <mxCell id="6UAyy9SeAwGmSTZhob72-62" value="10.boolean result" style="text;html=1;align=center;verticalAlign=middle;resizable=0;points=[];autosize=1;" vertex="1" parent="1">
          <mxGeometry x="900" y="380" width="110" height="20" as="geometry" />
        </mxCell>
        <mxCell id="6UAyy9SeAwGmSTZhob72-64" value="11. boolean result" style="text;html=1;align=center;verticalAlign=middle;resizable=0;points=[];autosize=1;" vertex="1" parent="1">
          <mxGeometry x="530" y="450" width="110" height="20" as="geometry" />
        </mxCell>
        <mxCell id="6UAyy9SeAwGmSTZhob72-66" value="12. switchTo (MyGroups)" style="text;html=1;align=center;verticalAlign=middle;resizable=0;points=[];autosize=1;" vertex="1" parent="1">
          <mxGeometry x="305" y="500" width="150" height="20" as="geometry" />
        </mxCell>
      </root>
    </mxGraphModel>
  </diagram>
</mxfile>
